<?xml version="1.0" encoding="UTF-8"?>
<svg xmlns="http://www.w3.org/2000/svg" viewBox="0 0 64 64" width="64" height="64" role="img" aria-label="Logo avion">
  <title>Logo Avion</title>
  <!-- Cercle de fond sombre -->
  <circle cx="32" cy="32" r="32" fill="#0f1720" />
  <!-- Silhouette d'un avion simple en blanc -->
  <g transform="translate(0,0) scale(1)">
    <path d="M47.3 30.7c-1.1-0.6-3.2-1.6-4.6-2.1-0.8-0.3-1.9-0.7-2.8-0.7-2.4-0.1-3.3 0.7-4.5 1.7-1.4 1.1-3.2 2.4-6 3.3-2.6 0.8-5.7 1.2-8.4 1.6l-2.2 0.4-0.6 1.9c-0.6 2.0-1.9 6.1-1.9 6.1s3.5 0.7 6.5 1.3c3.9 0.8 7.4 1.4 9.9 1.4 2.6 0 5.0-0.6 6.8-1.3 2.6-1.0 4.9-2.6 6.6-4.3 1.7-1.7 3.0-3.9 3.7-6.0 0.4-1.1 0.5-2.3 0.2-3.5-0.4-1.6-1.4-3.0-2.8-3.9z" fill="#ffffff" />
    <path d="M16.6 30.9c1.0-0.2 4.5-1.0 7.4-1.8 2.4-0.7 4.0-1.8 5.4-2.9 0.9-0.8 1.9-1.8 3.8-2 1.1-0.1 2.0 0.1 2.9 0.4l10.2 3.7c0.6 0.2 1.1 0.6 1.5 1.1 0.5 0.7 0.6 1.6 0.2 2.4-0.7 1.6-2.4 3.0-4.1 3.4l-6.8 1.6c-0.8 0.2-1.8 0.4-2.6 0.4-1.9 0-3.8-0.4-5.8-0.9-3.0-0.8-6.4-1.7-6.4-1.7s0.8-2.3 1.2-3.0c0.2-0.4 0.3-0.8 0.5-1.2z" fill="#ffffff" opacity="0.95"/>
  </g>
</svg>
